# AST/ASF file generated using VICON BodyLanguage
# -----------------------------------------------
:version 1.10
:name VICON
:units
  mass 1.0
  length 0.45
  angle deg
:documentation
   .ast/.asf automatically generated from VICON data using
   VICON BodyBuilder and BodyLanguage model FoxedUp or BRILLIANT.MOD
:root
   order TX TY TZ RX RY RZ
   axis XYZ
   position 0 0 0  
   orientation 0 0 0 
:bonedata
  begin
     id 1 
     name lhipjoint
     direction 0.560651 -0.75055 0.34978 
     length 2.44936 
     axis 0 0 0  XYZ
  end
  begin
     id 2 
     name lfemur
     direction 0.34202 -0.939693 0  
     length 7.42139  
     axis 0 0 20  XYZ
    dof rx ry rz
    limits (-160.0 20.0)
           (-70.0 70.0)
           (-60.0 70.0)
  end
  begin
     id 3 
     name ltibia
     direction 0.34202 -0.939693 0   
     length 7.75674   
     axis 0 0 20   XYZ
    dof rx
    limits (-10.0 170.0)
  end
  begin
     id 4 
     name lfoot
     direction 0.0925879 -0.254383 0.962661   
     length 2.38688   
     axis -90 7.62852e-016 20   XYZ
    dof rx rz
    limits (-45.0 90.0)
           (-70.0 20.0)
  end
  begin
     id 5 
     name ltoes
     direction 1.53567e-011 -4.21973e-011 1   
     length 1.19228   
     axis -90 7.62852e-016 20   XYZ
    dof rx
    limits (-90.0 20.0)
  end
  begin
     id 6 
     name rhipjoint
     direction -0.540087 -0.762838 0.355506   
     length 2.4099  
     axis 0 0 0  XYZ 
  end
  begin
     id 7 
     name rfemur
     direction -0.34202 -0.939693 0   
     length 7.70794   
     axis 0 0 -20   XYZ
    dof rx ry rz
    limits (-160.0 20.0)
           (-70.0 70.0)
           (-70.0 60.0)
  end
  begin
     id 8 
     name rtibia
     direction -0.34202 -0.939693 0   
     length 7.66106   
     axis 0 0 -20   XYZ
    dof rx
    limits (-10.0 170.0)
 end
 begin
     id 9 
     name rfoot
     direction -0.0830975 -0.228308 0.970036   
     length 2.4989  
     axis -90 -7.62852e-016 -20   XYZ
    dof rx rz
    limits (-45.0 90.0)
           (-20.0 70.0)
  end
  begin
     id 10 
     name rtoes
     direction -1.53517e-011 -4.21842e-011 1   
     length 1.2498   
     axis -90 -7.62852e-016 -20   XYZ
    dof rx
    limits (-90.0 20.0)
  end
  begin
     id 11 
     name lowerback
     direction 0.0266356 0.99402 -0.105896   
     length 2.1545   
     axis 0 0 0   XYZ
    dof rx ry rz
    limits (-20.0 45.0)
           (-30.0 30.0)
           (-30.0 30.0)
  end
  begin
     id 12 
     name upperback
     direction 0.0130547 0.999192 0.0380027   
     length 2.1434   
     axis 0 0 0   XYZ
    dof rx ry rz
    limits (-20.0 45.0)
           (-30.0 30.0)
           (-30.0 30.0)
  end
  begin
     id 13 
     name thorax
     direction 0.000590299 0.996288 0.0860764   
     length 2.19049   
     axis 0 0 0   XYZ
    dof rx ry rz
    limits (-20.0 45.0)
           (-30.0 30.0)
           (-30.0 30.0)
  end
  begin
     id 14 
     name lowerneck
     direction -0.0432125 0.978219 0.203028   
     length 1.62441   
     axis 0 0 0   XYZ
    dof rx ry rz
    limits (-20.0 45.0)
           (-30.0 30.0)
           (-30.0 30.0)
  end
  begin
     id 15 
     name upperneck
     direction -0.0192309 0.991699 -0.127138   
     length 1.66666   
     axis 0 0 0   XYZ
    dof rx ry rz
    limits (-20.0 45.0)
           (-30.0 30.0)
           (-30.0 30.0)
  end
  begin
     id 16
     name head
     direction -0.00434499 0.997882 -0.0649107  
     length 1.67142  
     axis 0 0 0   XYZ
    dof rx ry rz
    limits (-20.0 45.0)
           (-30.0 30.0)
           (-30.0 30.0)
  end
  begin
     id 17 
     name lclavicle
     direction 0.970351 0.240904 -0.0196058  
     length 4.04862  
     axis 0 0 0   XYZ
    dof ry rz
    limits (-20.0 10.0)
           (0.0 20.0)
  end
  begin
     id 18 
     name lhumerus
     direction 1 -4.4896e-011 -1.40911e-018   
     length 5.58345   
     axis 180 -30 -90   XYZ
    dof rx ry rz
    limits (-60.0 90.0)
           (-90.0 90.0)
           (-90.0 90.0)
  end
  begin
     id 19
     name lradius
     direction 1 -4.48968e-011 5.88912e-028   
     length 3.71087   
     axis 180 -30 -90   XYZ
    dof rx
    limits (-10.0 170.0)
  end
  begin
     id 20
     name lwrist
     direction 1 -4.48955e-011 -8.83775e-028   
     length 1.85544   
     axis 5.52448e-016 90 90   XYZ
    dof ry
    limits (-180.0 0.0)
 end
  begin
     id 21 
     name lhand
     direction 1 -4.49035e-011 -1.76755e-027   
     length 0.562322   
     axis 1.12785e-015 90 90   XYZ
    dof rx rz
    limits (-90.0 90.0)
           (-45.0 45.0)
  end
  begin
     id 22 
     name lfingers
     direction 1 -4.48824e-011 -3.5351e-027   
     length 0.453359   
     axis 2.2557e-015 90 90   XYZ
    dof rx
    limits (0.0 90.0)
  end
  begin
     id 23
     name lthumb
     direction 0.707107 -6.34888e-011 0.707107   
     length 0.650935   
     axis -90 45 2.85299e-015   XYZ
    dof rx rz
    limits (-45.0 45.0)
           (-45.0 45.0)
  end
  begin
     id 24 
     name rclavicle
     direction -0.96165 0.268562 -0.0557131   
     length 4.05446  
     axis 0 0 0   XYZ 
    dof ry rz
    limits (-10.0 20.0)
           (-20.0 0.0)
  end
  begin
     id 25 
     name rhumerus
     direction -1 -4.48957e-011 -3.36329e-027  
     length 5.20357   
     axis 180 30 90   XYZ
    dof rx ry rz
    limits (-90.0 60.0)
           (-90.0 90.0)
           (-90.0 90.0)
  end
  begin
     id 26 
     name rradius
     direction -1 -4.48974e-011 4.51441e-027   
     length 3.64937   
     axis 180 30 90   XYZ
    dof rx
    limits (-10.0 170.0)
  end
  begin
     id 27 
     name rwrist
     direction -1 -4.4896e-011 -8.83775e-028   
     length 1.82468   
     axis 5.52448e-016 -90 -90   XYZ
    dof ry
    limits (-180.0 0.0)
  end
  begin
     id 28
     name rhand
     direction -1 -4.48996e-011 -1.76755e-027   
     length 0.617996   
     axis 1.12785e-015 -90 -90   XYZ
    dof rx rz
    limits (-90.0 90.0)
           (-45.0 45.0)
  end
  begin
     id 29
     name rfingers
     direction -1 -4.48957e-011 -3.5351e-027   
     length 0.498244   
     axis 2.2557e-015 -90 -90   XYZ
    dof rx
    limits (0.0 90.0)
  end
  begin
     id 30
     name rthumb
     direction -0.707107 -6.34931e-011 0.707107   
     length 0.715382   
     axis -90 -45 -2.85299e-015   XYZ
    dof rx rz
    limits (-45.0 45.0)
           (-45.0 45.0)
  end
:hierarchy
  begin
    root lhipjoint rhipjoint lowerback
    lhipjoint lfemur
    lfemur ltibia
    ltibia lfoot
    lfoot ltoes
    rhipjoint rfemur
    rfemur rtibia
    rtibia rfoot
    rfoot rtoes
    lowerback upperback
    upperback thorax
    thorax lowerneck lclavicle rclavicle
    lowerneck upperneck
    upperneck head
    lclavicle lhumerus
    lhumerus lradius
    lradius lwrist
    lwrist lhand lthumb
    lhand lfingers
    rclavicle rhumerus
    rhumerus rradius
    rradius rwrist
    rwrist rhand rthumb
    rhand rfingers
  end

#!OML:ASF H:\ManfredETheater\Project 1\Capture day 2\Session 1\Male1.ASF
:FULLY-SPECIFIED
:DEGREES
16
root 0.597822 16.1207 11.9158 -16.0554 10.1367 -2.89906
lowerback 17.5523 -1.05672 1.64455
upperback 1.61561 -0.84738 2.49224
thorax -8.09482 -0.414687 1.95337
lowerneck -22.2432 -2.01704 -2.83796
upperneck 21.9942 -1.07187 -2.83591
head 10.783 -1.09668 -0.723879
rclavicle -2.48481e-016 2.78299e-015
rhumerus -46.7084 7.49227 -81.2889
rradius 102.666
rwrist 3.95998
rhand -35.2737 4.22457
rfingers 7.12502
rthumb -8.40891 -25.588
lclavicle -2.48481e-016 2.78299e-015
lhumerus -58.6138 -13.4451 99.9399
lradius 100.722
lwrist 9.37324
lhand -21.7008 -10.7255
lfingers 7.12502
lthumb 4.69767 19.2024
rfemur -34.692 -7.87928 20.3783
rtibia 43.7267
rfoot -5.52775 -5.56737
rtoes -13.6092
lfemur -16.8154 1.99389 -21.4653
ltibia 64.3738
lfoot -20.5186 -10.9317
ltoes 9.68
17
root 0.601711 16.1398 12.2278 -16.005 10.6977 -3.13211
lowerback 17.297 -1.28558 1.78398
upperback 1.6066 -1.12239 2.59633
thorax -7.95873 -0.550629 2.04547
lowerneck -22.2204 -1.99025 -2.80796
upperneck 21.8738 -1.01206 -2.97543
head 10.7341 -1.08283 -0.768117
rclavicle 5.38706e-014 2.38542e-015
rhumerus -47.0858 6.72822 -81.2477
rradius 102.713
rwrist 3.59808
rhand -35.386 4.19313
rfingers 7.12502
rthumb -8.51734 -25.6151
lclavicle 5.38706e-014 2.38542e-015
lhumerus -57.624 -13.7265 100.155
lradius 99.4504
lwrist 8.86934
lhand -21.6325 -10.6012
lfingers 7.12502
lthumb 4.76359 19.3252
rfemur -33.5946 -7.84508 20.418
rtibia 40.4941
rfoot -5.26954 -6.66653
rtoes -11.2417
lfemur -15.6534 1.31987 -21.1507
ltibia 64.3283
lfoot -21.3469 -11.1391
ltoes 8.57499
18
root 0.60078 16.1577 12.5449 -16.0657 11.3633 -3.38013
lowerback 17.0983 -1.55445 1.85157
upperback 1.59159 -1.46351 2.69139
thorax -7.85739 -0.716355 2.18421
lowerneck -22.1347 -1.93471 -2.73308
upperneck 21.8253 -0.935851 -3.08742
head 10.6996 -1.05473 -0.807321
rclavicle 2.48481e-015 -2.06736e-014
rhumerus -47.5174 6.05637 -81.2726
rradius 102.587
rwrist 2.97192
rhand -35.4335 4.30793
rfingers 7.12502
rthumb -8.56311 -25.4984
lclavicle 2.48481e-015 -2.06736e-014
lhumerus -56.8585 -13.8661 100.275
lradius 98.3013
lwrist 8.03275
lhand -21.7371 -10.6106
lfingers 7.12502
lthumb 4.66267 19.3181
rfemur -32.318 -7.69399 20.3693
rtibia 37.848
rfoot -4.51258 -7.73958
rtoes -12.5764
lfemur -14.4262 0.44691 -20.8026
ltibia 64.3196
lfoot -21.9085 -11.6168
ltoes 8.27036
19
root 0.594903 16.1697 12.8674 -16.2378 12.1806 -3.52506
lowerback 16.9753 -1.82411 1.76183
upperback 1.64829 -1.83804 2.74873
thorax -7.71486 -0.89418 2.3779
lowerneck -22.1861 -1.91533 -2.63591
upperneck 21.8148 -0.9076 -3.21119
head 10.7043 -1.04957 -0.864142
rclavicle 5.11871e-015 -2.62396e-014
rhumerus -47.8538 5.35205 -81.267
rradius 102.313
rwrist 2.20621
rhand -35.3939 4.37339
rfingers 7.12502
rthumb -8.52489 -25.4345
lclavicle 5.11871e-015 -2.62396e-014
lhumerus -56.0082 -14.064 100.347
lradius 97.1143
lwrist 7.01275
lhand -22.201 -10.687
lfingers 7.12502
lthumb 4.21465 19.251
rfemur -30.8628 -7.31492 20.0536
rtibia 35.7606
rfoot -4.34967 -8.72567
rtoes -11.935
lfemur -13.1049 -0.53005 -20.6016
ltibia 64.4105
lfoot -22.3177 -12.0573
ltoes 7.33249
20
root 0.592436 16.1781 13.1953 -16.1907 12.6998 -3.52024
lowerback 16.5622 -2.00055 1.57934
upperback 1.66351 -2.11863 2.7831
thorax -7.45514 -1.0262 2.56405
lowerneck -22.207 -1.86913 -2.63386
upperneck 21.8673 -0.843363 -3.2024
head 10.728 -1.01994 -0.85232
rclavicle 6.05299e-014 -2.22639e-014
rhumerus -48.1926 4.84179 -81.3047
rradius 101.924
rwrist 1.36113
rhand -35.4078 4.33275
rfingers 7.12502
rthumb -8.53833 -25.4746
lclavicle 6.05299e-014 -2.22639e-014
lhumerus -55.3551 -14.1514 100.372
lradius 96.1194
lwrist 5.96665
lhand -22.901 -10.8406
lfingers 7.12502
lthumb 3.53871 19.1098
rfemur -29.6481 -6.58548 19.7242
rtibia 34.174
rfoot -4.23217 -9.2313
rtoes -11.2576
lfemur -12.0278 -1.06677 -20.4682
ltibia 64.6648
lfoot -22.6638 -12.3043
ltoes 5.62336
21
root 0.587117 16.1807 13.5202 -16.1353 13.3118 -3.5183
lowerback 16.2137 -2.193 1.40937
upperback 1.63551 -2.41505 2.79512
thorax -7.2764 -1.16678 2.72376
lowerneck -22.1944 -1.82094 -2.55073
upperneck 21.9141 -0.786774 -3.26624
head 10.7423 -0.995838 -0.880773
rclavicle 6.16232e-015 0
rhumerus -48.5922 4.32462 -81.3621
rradius 101.462
rwrist 0.66359
rhand -35.3087 4.0657
rfingers 7.12502
rthumb -8.44274 -25.7455
lclavicle 6.16232e-015 0
lhumerus -54.7873 -14.3451 100.394
lradius 95.2231
lwrist 5.20967
lhand -23.5685 -11.0192
lfingers 7.12502
lthumb 2.8941 18.941
rfemur -28.4118 -5.632 19.3409
rtibia 32.9384
rfoot -4.2648 -9.55552
rtoes -10.321
lfemur -11.1656 -1.60117 -20.3423
ltibia 65.148
lfoot -22.6684 -12.6631
ltoes 4.27856
22
root 0.583603 16.1793 13.8456 -16.0227 13.8142 -3.45631
lowerback 15.8183 -2.33708 1.24116
upperback 1.59019 -2.64892 2.78641
thorax -7.09167 -1.27813 2.8419
lowerneck -22.1995 -1.80272 -2.51732
upperneck 22.0101 -0.768167 -3.27141
head 10.7785 -0.98668 -0.886639
rclavicle 1.00883e-014 -3.49861e-014
rhumerus -48.9934 3.93047 -81.3923
rradius 100.923
rwrist 0.049169
rhand -35.3583 3.92123
rfingers 7.12502
rthumb -8.49057 -25.8881
lclavicle 1.00883e-014 -3.49861e-014
lhumerus -54.2891 -14.5935 100.419
lradius 94.4663
lwrist 4.88714
lhand -24.2856 -11.2444
lfingers 7.12502
lthumb 2.20151 18.724
rfemur -27.207 -4.77112 19.0375
rtibia 31.9257
rfoot -4.34344 -9.18134
rtoes -11.1685
lfemur -10.4769 -1.93762 -20.2269
ltibia 65.853
lfoot -22.3639 -13.0664
ltoes 2.91603
23
root 0.580011 16.174 14.1677 -15.8943 14.2221 -3.39929
lowerback 15.4548 -2.43296 1.13738
upperback 1.51748 -2.80496 2.77699
thorax -6.95857 -1.35321 2.90689
lowerneck -22.1715 -1.81038 -2.56182
upperneck 22.0944 -0.76986 -3.24134
head 10.8049 -0.988518 -0.869505
rclavicle -4.96962e-016 -7.15625e-015
rhumerus -49.4838 3.50177 -81.3896
rradius 100.38
rwrist -0.295298
rhand -35.3529 3.92842
rfingers 7.12502
rthumb -8.48539 -25.8811
lclavicle -4.96962e-016 -7.15625e-015
lhumerus -53.8329 -14.9145 100.499
lradius 93.8
lwrist 5.08616
lhand -24.8407 -11.27
lfingers 7.12502
lthumb 1.66545 18.7032
rfemur -25.9905 -3.86614 18.8645
rtibia 31.0465
rfoot -4.19751 -8.59567
rtoes -11.9345
lfemur -9.99918 -2.06051 -20.018
ltibia 66.7794
lfoot -21.7231 -13.5598
ltoes 1.33523
24
root 0.578608 16.1677 14.4868 -15.7809 14.5842 -3.31614
lowerback 15.1408 -2.5249 1.0278
upperback 1.42369 -2.95482 2.75782
thorax -6.87511 -1.4248 2.96575
lowerneck -22.0917 -1.79605 -2.56724
upperneck 22.148 -0.758312 -3.20885
head 10.8099 -0.979806 -0.854785
rclavicle 3.82164e-014 -1.59028e-014
rhumerus -50.0274 3.25969 -81.411
rradius 99.798
rwrist -0.601883
rhand -35.3675 3.91068
rfingers 7.12502
rthumb -8.49945 -25.8983
lclavicle 3.82164e-014 -1.59028e-014
lhumerus -53.5222 -15.1703 100.557
lradius 93.3368
lwrist 5.70684
lhand -25.3408 -11.2952
lfingers 7.12502
lthumb 1.18245 18.6813
rfemur -24.8271 -3.01448 18.7588
rtibia 30.4895
rfoot -3.39619 -7.54515
rtoes -14.7508
lfemur -9.62623 -2.09304 -19.7956
ltibia 67.8334
lfoot -20.5993 -14.1627
ltoes -0.00979021
25
root 0.574258 16.171 14.799 -15.6412 14.8018 -3.28535
lowerback 14.8958 -2.57051 0.955051
upperback 1.27336 -3.03098 2.76968
thorax -6.89286 -1.45967 3.02739
lowerneck -21.9979 -1.78547 -2.60915
upperneck 22.2383 -0.741897 -3.16473
head 10.8263 -0.971022 -0.829408
rclavicle 4.28381e-014 1.03368e-014
rhumerus -50.6192 3.11671 -81.4098
rradius 99.1841
rwrist -0.645189
rhand -35.3791 3.89076
rfingers 7.12502
rthumb -8.51064 -25.9177
lclavicle 4.28381e-014 1.03368e-014
lhumerus -53.2776 -15.3884 100.611
lradius 92.918
lwrist 6.50707
lhand -25.5684 -11.222
lfingers 7.12502
lthumb 0.962562 18.7556
rfemur -24.1114 -2.20897 18.8132
rtibia 30.4797
rfoot -0.315607 -6.58174
rtoes -17.175
lfemur -9.46626 -1.94009 -19.3753
ltibia 69.0181
lfoot -18.9724 -14.9485
ltoes -1.18619
26
root 0.563639 16.2089 15.0861 -15.4531 14.9068 -3.47587
lowerback 14.8133 -2.57829 1.1084
upperback 1.06034 -3.00735 2.8487
thorax -7.08023 -1.44884 3.02505
lowerneck -21.8481 -1.81834 -2.70467
upperneck 22.2058 -0.792265 -3.05445
head 10.787 -0.986549 -0.779304
rclavicle 4.68635e-014 -1.90833e-014
rhumerus -51.1417 2.96399 -81.3372
rradius 98.5161
rwrist -0.616746
rhand -35.3045 3.65134
rfingers 7.12502
rthumb -8.43864 -26.1601
lclavicle 4.68635e-014 -1.90833e-014
lhumerus -53.113 -15.5744 100.668
lradius 92.5942
lwrist 7.14027
lhand -25.6353 -11.2016
lfingers 7.12502
lthumb 0.898024 18.7763
rfemur -24.3679 -1.3723 19.0417
rtibia 31.2399
rfoot 5.64287 -5.43722
rtoes -5.68204
lfemur -9.67093 -1.75427 -18.6053
ltibia 70.2683
lfoot -16.5282 -15.8554
ltoes -1.52699
27
root 0.554685 16.2225 15.3623 -15.262 15.0036 -3.68726
lowerback 14.8692 -2.63516 1.28027
upperback 0.812033 -3.0391 2.93593
thorax -7.38124 -1.4641 3.04255
lowerneck -21.7307 -1.75431 -2.4964
upperneck 22.2128 -0.72276 -3.26367
head 10.7658 -0.962881 -0.877262
rclavicle 2.127e-014 -3.97569e-015
rhumerus -51.6481 3.03232 -81.3391
rradius 97.8318
rwrist -0.545273
rhand -35.1706 3.61646
rfingers 7.12502
rthumb -8.30946 -26.2001
lclavicle 2.127e-014 -3.97569e-015
lhumerus -52.9538 -15.5225 100.618
lradius 92.2462
lwrist 7.50367
lhand -25.5897 -11.1872
lfingers 7.12502
lthumb 0.941978 18.7904
rfemur -24.942 -1.14504 19.6536
rtibia 32.7421
rfoot 7.96415 -5.09223
rtoes 0.437945
lfemur -10.1753 -1.68075 -17.8465
ltibia 71.7679
lfoot -14.0372 -16.6526
ltoes -2.59542
28
root 0.549296 16.2291 15.6197 -15.1857 14.8018 -4.31887
lowerback 15.0572 -2.68919 1.92591
upperback 0.623024 -2.96842 3.16605
thorax -7.7144 -1.44306 2.93057
lowerneck -21.6607 -1.68887 -2.50288
upperneck 22.1522 -0.638503 -3.2453
head 10.731 -0.921176 -0.85489
rclavicle 1.02374e-014 -1.59028e-014
rhumerus -51.9201 3.14496 -81.3468
rradius 97.0537
rwrist -0.434389
rhand -35.0359 3.5437
rfingers 7.12502
rthumb -8.17938 -26.278
lclavicle 1.02374e-014 -1.59028e-014
lhumerus -52.6478 -15.1965 100.513
lradius 91.8329
lwrist 7.4471
lhand -25.2572 -11.1948
lfingers 7.12502
lthumb 1.26314 18.7812
rfemur -25.52 -0.976935 20.7505
rtibia 34.7464
rfoot 7.7959 -5.55507
rtoes 0.715659
lfemur -10.9407 -1.59801 -16.6068
ltibia 73.375
lfoot -11.465 -17.4749
ltoes -3.1495
29
root 0.561249 16.2309 15.8575 -15.2595 13.9895 -5.40929
lowerback 15.3816 -2.68861 3.34029
upperback 0.536395 -2.67142 3.4845
thorax -8.05196 -1.34042 2.43532
lowerneck -21.9121 -1.61323 -2.4099
upperneck 22.259 -0.545645 -3.2623
head 10.8173 -0.87645 -0.866343
rclavicle 3.73715e-014 -4.77083e-015
rhumerus -51.9526 3.31444 -81.4115
rradius 96.2021
rwrist -0.498918
rhand -34.9517 3.58924
rfingers 7.12502
rthumb -8.09811 -26.2356
lclavicle 3.73715e-014 -4.77083e-015
lhumerus -52.2446 -14.7201 100.303
lradius 91.3784
lwrist 7.03873
lhand -25.0699 -11.1709
lfingers 7.12502
lthumb 1.4441 18.8039
rfemur -26.059 -0.771391 22.3937
rtibia 36.8552
rfoot 6.41798 -5.02708
rtoes 1.72792
lfemur -11.675 -1.20759 -14.827
ltibia 74.9784
lfoot -9.81154 -18.1969
ltoes -4.63264
30
root 0.587845 16.2269 16.082 -15.5458 13.3465 -6.34152
lowerback 15.9657 -2.76953 4.70353
upperback 0.609564 -2.47022 3.74156
thorax -8.35287 -1.28636 1.93088
lowerneck -22.309 -1.5533 -2.40785
upperneck 22.2433 -0.459244 -3.21475
head 10.8863 -0.833525 -0.840179
rclavicle 4.7758e-014 -7.95139e-016
rhumerus -51.6507 3.62814 -81.4427
rradius 95.2015
rwrist -0.631154
rhand -34.8477 3.37862
rfingers 7.12502
rthumb -7.99781 -26.4501
lclavicle 4.7758e-014 -7.95139e-016
lhumerus -51.6868 -14.0756 100.039
lradius 90.8643
lwrist 6.44338
lhand -24.94 -11.347
lfingers 7.12502
lthumb 1.56951 18.627
rfemur -26.3309 -1.09351 23.7864
rtibia 38.7418
rfoot 5.53942 -4.52191
rtoes 1.51739
lfemur -12.0637 -1.23953 -13.5181
ltibia 76.3582
lfoot -9.60414 -18.3385
ltoes -6.35597
